<?xml version="1.0" encoding="UTF-8"?>
<svg xmlns="http://www.w3.org/2000/svg" xmlns:xlink="http://www.w3.org/1999/xlink" viewBox="0 0 1333 489.57">
  <defs>
    <style>
      .cls-1 {
        stroke: #a87d40;
      }

      .cls-1, .cls-2, .cls-3, .cls-4, .cls-5 {
        stroke-miterlimit: 10;
      }

      .cls-1, .cls-3, .cls-6, .cls-4 {
        fill: none;
      }

      .cls-2 {
        stroke: #d4a666;
      }

      .cls-2, .cls-7 {
        fill: #d4a666;
      }

      .cls-8 {
        letter-spacing: -.06em;
      }

      .cls-9 {
        fill: #3e5648;
      }

      .cls-10 {
        fill: #a35807;
      }

      .cls-10, .cls-11 {
        opacity: .7;
      }

      .cls-12 {
        fill: #f15a24;
      }

      .cls-3 {
        stroke: #faedcd;
        stroke-width: .25px;
      }

      .cls-13 {
        fill: #9aa56d;
      }

      .cls-14 {
        fill: #f7931e;
      }

      .cls-15 {
        letter-spacing: -.07em;
      }

      .cls-16 {
        fill: url(#radial-gradient);
      }

      .cls-17, .cls-18 {
        fill: #5d7c6a;
      }

      .cls-11 {
        fill: #db7c1d;
      }

      .cls-18 {
        opacity: .9;
      }

      .cls-19 {
        letter-spacing: -.06em;
      }

      .cls-20 {
        fill: #ed1c24;
      }

      .cls-21 {
        fill: #5c401a;
        font-family: ArialMT, Arial;
        font-size: 177.56px;
      }

      .cls-22 {
        fill: #276b46;
      }

      .cls-23 {
        fill: #ce800d;
      }

      .cls-24 {
        fill: #ef3026;
      }

      .cls-4 {
        stroke: #5c401a;
        stroke-width: 2px;
      }

      .cls-25 {
        fill: #eac31b;
      }

      .cls-5 {
        fill: #aab286;
        stroke: #ccd5ae;
      }

      .cls-26 {
        fill: #ffddad;
      }
    </style>
    <radialGradient id="radial-gradient" cx="634.65" cy="256.88" fx="634.65" fy="256.88" r="239.99" gradientTransform="translate(-10.42 192.36) rotate(-20.9)" gradientUnits="userSpaceOnUse">
      <stop offset="0" stop-color="#d4a666"/>
      <stop offset="1" stop-color="#ffddad"/>
    </radialGradient>
  </defs>
  <g id="Layer_2" data-name="Layer 2">
    <path class="cls-7" d="m385.72,348.86l70.79,116.65c65.17,13.13,128.48,23.61,217.74,24.04,97.16.46,136.31-6.15,201.38-26.65,21.26-35.31,65.6-60.23,86.86-95.54l-576.77-18.49Z"/>
  </g>
  <g id="Layer_1" data-name="Layer 1">
    <ellipse class="cls-26" cx="674.26" cy="217.77" rx="641.53" ry="217.77"/>
    <ellipse class="cls-16" cx="674.11" cy="205.9" rx="321.36" ry="109.09"/>
    <line class="cls-6" x1="106.05" y1="266.97" x2="104.02" y2="432.02"/>
  </g>
  <g id="Layer_3" data-name="Layer 3">
    <text class="cls-21" transform="translate(0 229.24) scale(1.03 1)"><tspan x="0" y="0">RES</tspan><tspan class="cls-15" x="365.09" y="0">T</tspan><tspan class="cls-8" x="460.37" y="0">A</tspan><tspan x="569.01" y="0" xml:space="preserve">   RACJ</tspan><tspan class="cls-19" x="1180.67" y="0">A</tspan></text>
  </g>
  <g id="Layer_11" data-name="Layer 11">
    <g>
      <path class="cls-2" d="m578.9,121.12s11.28,138.48,77.72,122.82c0,0,64.19,17.45,68.62-124.82,0-1.19-146.35,2.01-146.35,2.01Z"/>
      <ellipse class="cls-5" cx="652.07" cy="118.85" rx="68.74" ry="20.99"/>
      <ellipse class="cls-1" cx="652.07" cy="118.85" rx="73.99" ry="23.38"/>
      <path class="cls-10" d="m645.91,123.86s-2.64,2.94-2.12,3.92c.76,1.45,4.9.52,6.26-1.96.16-.04-4.14-1.96-4.14-1.96Z"/>
      <ellipse class="cls-11" cx="700.77" cy="116.79" rx="4.82" ry="4.08"/>
      <ellipse class="cls-25" cx="690.49" cy="127.16" rx="1.64" ry="2.62"/>
      <ellipse class="cls-25" cx="654.35" cy="106.71" rx="2.28" ry="1.63"/>
      <circle class="cls-25" cx="632.76" cy="116.36" r="1.03"/>
      <ellipse class="cls-25" cx="656.4" cy="135.07" rx="2.76" ry=".67"/>
      <rect class="cls-22" x="690.74" y="114.18" width="1.22" height="21.85" rx=".12" ry=".12" transform="translate(608.63 822.8) rotate(-93.5)"/>
      <rect class="cls-22" x="643.18" y="124.97" width="11.49" height="1.17" rx=".11" ry=".11"/>
      <rect class="cls-22" x="663.23" y="110.21" width="19.84" height=".83" rx=".08" ry=".08" transform="translate(1345.82 -2.86) rotate(161.09)"/>
      <path class="cls-3" d="m654.38,119.83s6.65-11.85,13.43-11.49c.21,0,13.23-.46,5.97,10.5-.1.11-2.51,5.9,4.48,8.48-.09-.08,5.34,3.31,6.86-6.46.24-.19-2.27-11.42,4.62-11.15"/>
      <path class="cls-3" d="m622.79,121.1s14.59-17.73,22.2-11.38c.12.12,10.59,4.45,1.94,11.11-.12,0-9.41,3.32-7.09,8.96,0-.1,3.06,6.29,9.78,1.79.24.04,12.15-13.74,15.81-9.43,0,.03,6.56,5.68-5.67,11.26"/>
      <path class="cls-3" d="m617.38,115.2s4.7-10.82,10.85-10.09c.19,0,7.23,1.54-1.03,11.11-.11.09-4.26,6.06,1.76,8.84-.07-.08,3.88,3.18,6.7-5.65.24-.16,4.22-12.69,10.5-12.03.02.02,6.5-1.55-.48,12.41"/>
      <path class="cls-14" d="m695.55,117.64c0,.22.1.41.12.62l10.24-.24c0-.13.08-.24.08-.37,0-2.88-2.34-5.22-5.22-5.22s-5.22,2.34-5.22,5.22Z"/>
      <path class="cls-23" d="m650.32,125.99c1.41-2.51.51-5.7-2-7.11l-4.12,7.36h5.91c.06-.1.16-.15.22-.25Z"/>
      <path class="cls-13" d="m607.49,124.78c.56,1.31,1.16,2.61,2.05,3.73s2.16,1.91,3.61,2.28c1.68.42,3.43.63,5.14.93,1.87.32,3.74.65,5.61.97s3.74.65,5.61.97c.62.11,1.38.36,2,.16.55-.19.8-.75.69-1.3-.15-.77-.68-1.51-1.03-2.2-.4-.78-.75-1.64-1.26-2.36-.95-1.34-2.72-1.32-4.2-1.52-4.14-.55-8.31-.82-12.48-.84-.64,0-.64,1,0,1,3.19.01,6.38.17,9.56.49,1.63.17,3.29.32,4.9.63.72.14,1.2.42,1.57,1.06.41.69.74,1.43,1.11,2.14.17.33.33.65.5.98.14.28.59.89.07.98-.3.05-.74-.12-1.03-.17-.45-.08-.89-.15-1.34-.23-1.59-.27-3.17-.55-4.76-.82-3.18-.55-6.37-1.05-9.54-1.65-1.51-.29-2.82-.79-3.84-1.99-.93-1.09-1.51-2.44-2.07-3.74-.25-.59-1.12-.08-.86.5h0Z"/>
      <path class="cls-13" d="m622.1,127.16c1.36,1.35,2.8,2.6,4.31,3.76.21.17.56.03.68-.18.15-.26.04-.52-.18-.68-1.44-1.11-2.82-2.32-4.11-3.61-.46-.45-1.17.25-.71.71h0Z"/>
      <rect class="cls-22" x="620.75" y="114.23" width="11.83" height=".48" rx=".05" ry=".05" transform="translate(751.06 739.24) rotate(-111.61)"/>
      <g>
        <path class="cls-20" d="m606.9,123.48c-6-8.16-4.25-19.65,3.92-25.65l-1.39-1.89c-9.21,6.77-11.19,19.73-4.42,28.94.1.13.23.23.33.36l3.22.08c-.57-.59-1.16-1.15-1.66-1.83Z"/>
        <path class="cls-24" d="m606.9,123.48c.5.68,1.09,1.24,1.66,1.83l22.88.56-20.62-28.04c-8.16,6-9.92,17.49-3.92,25.65Zm16.07-1.26c.19-.14.46-.1.61.09.14.19.1.46-.09.61-.19.14-.46.1-.61-.09-.14-.19-.1-.46.09-.61Zm-6.69,3.25c-.2.15-.48.1-.63-.1s-.1-.48.1-.63c.2-.15.48-.1.63.1.15.2.1.48-.1.63Zm.03-11.06c-.14.1-.33.07-.43-.07-.1-.14-.07-.33.07-.43s.33-.07.43.07.07.33-.07.43Zm-.79-4.35c.34-.25.66-.4.72-.32.05.07-.18.34-.52.59-.34.25-.66.4-.72.32-.06-.07.18-.34.52-.59Zm-.46,8.46c.32-.24.78-.17,1.02.16.24.32.17.78-.16,1.02-.32.24-.78.17-1.02-.16-.24-.32-.17-.78.16-1.02Zm-3.02-14.22c.27-.2.65-.14.85.13.2.27.14.65-.13.85-.27.2-.65.14-.85-.13-.2-.27-.14-.65.13-.85Zm-1.6,6.71c.24.32.17.78-.16,1.02-.32.24-.78.17-1.02-.16-.24-.32-.17-.78.15-1.02.32-.24.78-.17,1.02.16Zm-1.38-5.93c.22.3.4.54.4.54,0,0-.18-.24-.4-.54-.22-.3-.4-.54-.4-.54,0,0,.18.24.4.54Zm-.3,12.44c.3-.22.72-.16.94.14.22.3.16.72-.14.94-.3.22-.72.16-.94-.14-.22-.3-.16-.72.14-.94Z"/>
        <path class="cls-12" d="m609.56,118.6c.3-.22.36-.64.14-.94-.22-.3-.64-.36-.94-.14-.3.22-.36.64-.14.94.22.3.64.36.94.14Z"/>
        <path class="cls-12" d="m609.27,111.88c.24.32.69.39,1.02.16.32-.24.39-.69.16-1.02-.24-.32-.69-.39-1.02-.16-.32.24-.39.69-.15,1.02Z"/>
        <path class="cls-12" d="m615.65,125.37c.15.2.43.24.63.1.2-.15.24-.43.1-.63-.15-.2-.43-.24-.63-.1-.2.15-.24.43-.1.63Z"/>
        <path class="cls-12" d="m615.92,119.69c.32-.24.39-.69.16-1.02-.24-.32-.69-.39-1.02-.16-.32.24-.39.69-.16,1.02.24.32.69.39,1.02.16Z"/>
        <path class="cls-12" d="m615.88,114.34c.1.14.29.17.43.07s.17-.29.07-.43-.29-.17-.43-.07-.17.29-.07.43Z"/>
        <path class="cls-12" d="m623.57,122.31c-.14-.19-.41-.23-.61-.09-.19.14-.23.41-.09.61.14.19.41.23.61.09.19-.14.23-.41.09-.61Z"/>
        <path class="cls-12" d="m616.24,109.74c-.06-.07-.38.07-.72.32-.34.25-.58.52-.52.59.05.07.38-.07.72-.32.34-.25.58-.52.52-.59Z"/>
        <path class="cls-12" d="m612.76,105.28c.27-.2.33-.58.13-.85-.2-.27-.58-.33-.85-.13-.27.2-.33.58-.13.85.2.27.58.33.85.13Z"/>
      </g>
      <path class="cls-17" d="m678.59,112.92s-1.79,2.47-1.62,3.34c.1.54,1.1,1.36,1.64,1.49.75.18,2.43-.26,2.98-.81.73-.72,1.13-3.78,1.13-3.78l-4.7-.28"/>
      <path class="cls-9" d="m686.97,111.11c9.08-4.41-2.28-9.59-2.42-9.56-12.7-3.19-10.27,5.23-8.24,7.02.61.54,3.09.89,3.09.89,0,0-1.93,3.9-2.46,5.45h5.82l.74-4.27s3.39.28,3.47.47Z"/>
      <ellipse class="cls-18" cx="682.2" cy="107.04" rx="3.4" ry="5.11" transform="translate(391.71 733.52) rotate(-74.04)"/>
    </g>
    <path class="cls-4" d="m578.08,118.85s.58,128.62,72.89,126.93c-.32.84,76.8,10.71,76.77-128.26"/>
  </g>
</svg>